<svg id="visual" viewBox="0 0 960 150" width="960" height="150" xmlns="http://www.w3.org/2000/svg" xmlns:xlink="http://www.w3.org/1999/xlink" version="1.1"><rect x="0" y="0" width="960" height="150" fill="#B5838D"></rect><g transform="translate(500.46504094986193 88.93145417334597)"><path d="M21.9 -39.1C30.1 -28.8 39.6 -25.6 43.1 -19.3C46.6 -13 44.1 -3.5 44 7.2C43.8 18 46.1 29.9 41.4 36.5C36.7 43 25 44 15.2 42.7C5.5 41.3 -2.2 37.5 -9.3 34.3C-16.4 31 -23 28.3 -36.5 24.8C-50 21.4 -70.5 17.2 -79.8 6.5C-89.1 -4.3 -87.2 -21.6 -77.8 -32.8C-68.4 -43.9 -51.5 -48.9 -37.3 -56.4C-23.1 -63.9 -11.5 -73.9 -2.3 -70.3C6.8 -66.7 13.7 -49.3 21.9 -39.1" fill="#8b666e"></path></g></svg>