<svg id="visual" viewBox="0 0 960 150" width="960" height="150" xmlns="http://www.w3.org/2000/svg" xmlns:xlink="http://www.w3.org/1999/xlink" version="1.1"><rect x="0" y="0" width="960" height="150" fill="#B5838D"></rect><g transform="translate(484.6394827127304 71.86902713809704)"><path d="M23.9 -34.8C34.8 -30.2 50.2 -30 53 -24.1C55.9 -18.2 46.2 -6.5 41 3.4C35.8 13.3 34.9 21.4 32.8 34.1C30.7 46.8 27.3 64.2 20 64.9C12.7 65.6 1.4 49.7 -14.4 46.3C-30.2 43 -50.5 52.2 -58.5 47.9C-66.4 43.7 -61.9 26 -57.2 12.5C-52.5 -1 -47.6 -10.3 -44.7 -22C-41.8 -33.8 -40.9 -48 -33.8 -54.4C-26.7 -60.8 -13.3 -59.4 -3.4 -54.1C6.5 -48.8 13 -39.5 23.9 -34.8" fill="#8b666e"></path></g></svg>