<svg id="visual" viewBox="0 0 960 150" width="960" height="150" xmlns="http://www.w3.org/2000/svg" xmlns:xlink="http://www.w3.org/1999/xlink" version="1.1"><path d="M0 25L7.7 22.8C15.3 20.7 30.7 16.3 45.8 14.3C61 12.3 76 12.7 91.2 11.7C106.3 10.7 121.7 8.3 137 11.8C152.3 15.3 167.7 24.7 183 27.2C198.3 29.7 213.7 25.3 228.8 24.7C244 24 259 27 274.2 26.7C289.3 26.3 304.7 22.7 320 21.8C335.3 21 350.7 23 365.8 22.5C381 22 396 19 411.2 16.5C426.3 14 441.7 12 457 12.8C472.3 13.7 487.7 17.3 503 18.3C518.3 19.3 533.7 17.7 548.8 20.3C564 23 579 30 594.2 33.8C609.3 37.7 624.7 38.3 640 34.3C655.3 30.3 670.7 21.7 685.8 15.7C701 9.7 716 6.3 731.2 9.2C746.3 12 761.7 21 777 21.2C792.3 21.3 807.7 12.7 823 10.7C838.3 8.7 853.7 13.3 868.8 15.8C884 18.3 899 18.7 914.2 17.7C929.3 16.7 944.7 14.3 952.3 13.2L960 12L960 0L952.3 0C944.7 0 929.3 0 914.2 0C899 0 884 0 868.8 0C853.7 0 838.3 0 823 0C807.7 0 792.3 0 777 0C761.7 0 746.3 0 731.2 0C716 0 701 0 685.8 0C670.7 0 655.3 0 640 0C624.7 0 609.3 0 594.2 0C579 0 564 0 548.8 0C533.7 0 518.3 0 503 0C487.7 0 472.3 0 457 0C441.7 0 426.3 0 411.2 0C396 0 381 0 365.8 0C350.7 0 335.3 0 320 0C304.7 0 289.3 0 274.2 0C259 0 244 0 228.8 0C213.7 0 198.3 0 183 0C167.7 0 152.3 0 137 0C121.7 0 106.3 0 91.2 0C76 0 61 0 45.8 0C30.7 0 15.3 0 7.7 0L0 0Z" fill="#ffb4a2"></path><path d="M0 37L7.7 36C15.3 35 30.7 33 45.8 33C61 33 76 35 91.2 31.5C106.3 28 121.7 19 137 23.2C152.3 27.3 167.7 44.7 183 47.5C198.3 50.3 213.7 38.7 228.8 35C244 31.3 259 35.7 274.2 39.7C289.3 43.7 304.7 47.3 320 48.8C335.3 50.3 350.7 49.7 365.8 48.8C381 48 396 47 411.2 43.3C426.3 39.7 441.7 33.3 457 31.3C472.3 29.3 487.7 31.7 503 34.2C518.3 36.7 533.7 39.3 548.8 40.7C564 42 579 42 594.2 42.2C609.3 42.3 624.7 42.7 640 41.7C655.3 40.7 670.7 38.3 685.8 36.3C701 34.3 716 32.7 731.2 32.2C746.3 31.7 761.7 32.3 777 31.2C792.3 30 807.7 27 823 29.5C838.3 32 853.7 40 868.8 42.2C884 44.3 899 40.7 914.2 38.8C929.3 37 944.7 37 952.3 37L960 37L960 10L952.3 11.2C944.7 12.3 929.3 14.7 914.2 15.7C899 16.7 884 16.3 868.8 13.8C853.7 11.3 838.3 6.7 823 8.7C807.7 10.7 792.3 19.3 777 19.2C761.7 19 746.3 10 731.2 7.2C716 4.3 701 7.7 685.8 13.7C670.7 19.7 655.3 28.3 640 32.3C624.7 36.3 609.3 35.7 594.2 31.8C579 28 564 21 548.8 18.3C533.7 15.7 518.3 17.3 503 16.3C487.7 15.3 472.3 11.7 457 10.8C441.7 10 426.3 12 411.2 14.5C396 17 381 20 365.8 20.5C350.7 21 335.3 19 320 19.8C304.7 20.7 289.3 24.3 274.2 24.7C259 25 244 22 228.8 22.7C213.7 23.3 198.3 27.7 183 25.2C167.7 22.7 152.3 13.3 137 9.8C121.7 6.3 106.3 8.7 91.2 9.7C76 10.7 61 10.3 45.8 12.3C30.7 14.3 15.3 18.7 7.7 20.8L0 23Z" fill="#e6a1a3"></path><path d="M0 60L7.7 60.7C15.3 61.3 30.7 62.7 45.8 65.8C61 69 76 74 91.2 73.5C106.3 73 121.7 67 137 68.8C152.3 70.7 167.7 80.3 183 76.8C198.3 73.3 213.7 56.7 228.8 52.7C244 48.7 259 57.3 274.2 61.7C289.3 66 304.7 66 320 65.2C335.3 64.3 350.7 62.7 365.8 64.2C381 65.7 396 70.3 411.2 67.2C426.3 64 441.7 53 457 54.2C472.3 55.3 487.7 68.7 503 73.8C518.3 79 533.7 76 548.8 75.8C564 75.7 579 78.3 594.2 77.2C609.3 76 624.7 71 640 67.5C655.3 64 670.7 62 685.8 63.7C701 65.3 716 70.7 731.2 73.7C746.3 76.7 761.7 77.3 777 73.2C792.3 69 807.7 60 823 56.7C838.3 53.3 853.7 55.7 868.8 58.2C884 60.7 899 63.3 914.2 60.8C929.3 58.3 944.7 50.7 952.3 46.8L960 43L960 35L952.3 35C944.7 35 929.3 35 914.2 36.8C899 38.7 884 42.3 868.8 40.2C853.7 38 838.3 30 823 27.5C807.7 25 792.3 28 777 29.2C761.7 30.3 746.3 29.7 731.2 30.2C716 30.7 701 32.3 685.8 34.3C670.7 36.3 655.3 38.7 640 39.7C624.7 40.7 609.3 40.3 594.2 40.2C579 40 564 40 548.8 38.7C533.7 37.3 518.3 34.7 503 32.2C487.7 29.7 472.3 27.3 457 29.3C441.7 31.3 426.3 37.7 411.2 41.3C396 45 381 46 365.8 46.8C350.7 47.7 335.3 48.3 320 46.8C304.7 45.3 289.3 41.7 274.2 37.7C259 33.7 244 29.3 228.8 33C213.7 36.7 198.3 48.3 183 45.5C167.7 42.7 152.3 25.3 137 21.2C121.7 17 106.3 26 91.2 29.5C76 33 61 31 45.8 31C30.7 31 15.3 33 7.7 34L0 35Z" fill="#c791a0"></path><path d="M0 115L7.7 111C15.3 107 30.7 99 45.8 95.5C61 92 76 93 91.2 96.8C106.3 100.7 121.7 107.3 137 112.3C152.3 117.3 167.7 120.7 183 110.7C198.3 100.7 213.7 77.3 228.8 70.2C244 63 259 72 274.2 83.5C289.3 95 304.7 109 320 109C335.3 109 350.7 95 365.8 87.5C381 80 396 79 411.2 81.5C426.3 84 441.7 90 457 98.5C472.3 107 487.7 118 503 115.5C518.3 113 533.7 97 548.8 96C564 95 579 109 594.2 106.7C609.3 104.3 624.7 85.7 640 80.7C655.3 75.7 670.7 84.3 685.8 90.3C701 96.3 716 99.7 731.2 100.3C746.3 101 761.7 99 777 94C792.3 89 807.7 81 823 86C838.3 91 853.7 109 868.8 114.8C884 120.7 899 114.3 914.2 103.5C929.3 92.7 944.7 77.3 952.3 69.7L960 62L960 41L952.3 44.8C944.7 48.7 929.3 56.3 914.2 58.8C899 61.3 884 58.7 868.8 56.2C853.7 53.7 838.3 51.3 823 54.7C807.7 58 792.3 67 777 71.2C761.7 75.3 746.3 74.7 731.2 71.7C716 68.7 701 63.3 685.8 61.7C670.7 60 655.3 62 640 65.5C624.7 69 609.3 74 594.2 75.2C579 76.3 564 73.7 548.8 73.8C533.7 74 518.3 77 503 71.8C487.7 66.7 472.3 53.3 457 52.2C441.7 51 426.3 62 411.2 65.2C396 68.3 381 63.7 365.8 62.2C350.7 60.7 335.3 62.3 320 63.2C304.7 64 289.3 64 274.2 59.7C259 55.3 244 46.7 228.8 50.7C213.7 54.7 198.3 71.3 183 74.8C167.7 78.3 152.3 68.7 137 66.8C121.7 65 106.3 71 91.2 71.5C76 72 61 67 45.8 63.8C30.7 60.7 15.3 59.3 7.7 58.7L0 58Z" fill="#a78397"></path><path d="M0 117L7.7 113.2C15.3 109.3 30.7 101.7 45.8 97.8C61 94 76 94 91.2 100C106.3 106 121.7 118 137 124.8C152.3 131.7 167.7 133.3 183 124.2C198.3 115 213.7 95 228.8 90.2C244 85.3 259 95.7 274.2 105.3C289.3 115 304.7 124 320 121.3C335.3 118.7 350.7 104.3 365.8 98.7C381 93 396 96 411.2 97.7C426.3 99.3 441.7 99.7 457 107.2C472.3 114.7 487.7 129.3 503 129.2C518.3 129 533.7 114 548.8 112.5C564 111 579 123 594.2 119C609.3 115 624.7 95 640 92.5C655.3 90 670.7 105 685.8 114C701 123 716 126 731.2 125C746.3 124 761.7 119 777 114C792.3 109 807.7 104 823 106.5C838.3 109 853.7 119 868.8 125.2C884 131.3 899 133.7 914.2 123.3C929.3 113 944.7 90 952.3 78.5L960 67L960 60L952.3 67.7C944.7 75.3 929.3 90.7 914.2 101.5C899 112.3 884 118.7 868.8 112.8C853.7 107 838.3 89 823 84C807.7 79 792.3 87 777 92C761.7 97 746.3 99 731.2 98.3C716 97.7 701 94.3 685.8 88.3C670.7 82.3 655.3 73.7 640 78.7C624.7 83.7 609.3 102.3 594.2 104.7C579 107 564 93 548.8 94C533.7 95 518.3 111 503 113.5C487.7 116 472.3 105 457 96.5C441.7 88 426.3 82 411.2 79.5C396 77 381 78 365.8 85.5C350.7 93 335.3 107 320 107C304.7 107 289.3 93 274.2 81.5C259 70 244 61 228.8 68.2C213.7 75.3 198.3 98.7 183 108.7C167.7 118.7 152.3 115.3 137 110.3C121.7 105.3 106.3 98.7 91.2 94.8C76 91 61 90 45.8 93.5C30.7 97 15.3 105 7.7 109L0 113Z" fill="#887689"></path><path d="M0 151L7.7 151C15.3 151 30.7 151 45.8 151C61 151 76 151 91.2 151C106.3 151 121.7 151 137 151C152.3 151 167.7 151 183 151C198.3 151 213.7 151 228.8 151C244 151 259 151 274.2 151C289.3 151 304.7 151 320 151C335.3 151 350.7 151 365.8 151C381 151 396 151 411.2 151C426.3 151 441.7 151 457 151C472.3 151 487.7 151 503 151C518.3 151 533.7 151 548.8 151C564 151 579 151 594.2 151C609.3 151 624.7 151 640 151C655.3 151 670.7 151 685.8 151C701 151 716 151 731.2 151C746.3 151 761.7 151 777 151C792.3 151 807.7 151 823 151C838.3 151 853.7 151 868.8 151C884 151 899 151 914.2 151C929.3 151 944.7 151 952.3 151L960 151L960 65L952.3 76.5C944.7 88 929.3 111 914.2 121.3C899 131.7 884 129.3 868.8 123.2C853.7 117 838.3 107 823 104.5C807.7 102 792.3 107 777 112C761.7 117 746.3 122 731.2 123C716 124 701 121 685.8 112C670.7 103 655.3 88 640 90.5C624.7 93 609.3 113 594.2 117C579 121 564 109 548.8 110.5C533.7 112 518.3 127 503 127.2C487.7 127.3 472.3 112.7 457 105.2C441.7 97.7 426.3 97.3 411.2 95.7C396 94 381 91 365.8 96.7C350.7 102.3 335.3 116.7 320 119.3C304.7 122 289.3 113 274.2 103.3C259 93.7 244 83.3 228.8 88.2C213.7 93 198.3 113 183 122.2C167.7 131.3 152.3 129.7 137 122.8C121.7 116 106.3 104 91.2 98C76 92 61 92 45.8 95.8C30.7 99.7 15.3 107.3 7.7 111.2L0 115Z" fill="#6d6875"></path></svg>