<svg id="visual" viewBox="0 0 960 190" width="960" height="190" xmlns="http://www.w3.org/2000/svg" xmlns:xlink="http://www.w3.org/1999/xlink" version="1.1"><path d="M0 17L26.7 16.7C53.3 16.3 106.7 15.7 160 15.3C213.3 15 266.7 15 320 16C373.3 17 426.7 19 480 20C533.3 21 586.7 21 640 22.7C693.3 24.3 746.7 27.7 800 28.7C853.3 29.7 906.7 28.3 933.3 27.7L960 27L960 0L933.3 0C906.7 0 853.3 0 800 0C746.7 0 693.3 0 640 0C586.7 0 533.3 0 480 0C426.7 0 373.3 0 320 0C266.7 0 213.3 0 160 0C106.7 0 53.3 0 26.7 0L0 0Z" fill="#ffb4a2"></path><path d="M0 81L26.7 77.3C53.3 73.7 106.7 66.3 160 62.3C213.3 58.3 266.7 57.7 320 59C373.3 60.3 426.7 63.7 480 63.3C533.3 63 586.7 59 640 59.3C693.3 59.7 746.7 64.3 800 66C853.3 67.7 906.7 66.3 933.3 65.7L960 65L960 25L933.3 25.7C906.7 26.3 853.3 27.7 800 26.7C746.7 25.7 693.3 22.3 640 20.7C586.7 19 533.3 19 480 18C426.7 17 373.3 15 320 14C266.7 13 213.3 13 160 13.3C106.7 13.7 53.3 14.3 26.7 14.7L0 15Z" fill="#ffb7a4"></path><path d="M0 117L26.7 115.7C53.3 114.3 106.7 111.7 160 109C213.3 106.3 266.7 103.7 320 102.7C373.3 101.7 426.7 102.3 480 102.7C533.3 103 586.7 103 640 105.3C693.3 107.7 746.7 112.3 800 113C853.3 113.7 906.7 110.3 933.3 108.7L960 107L960 63L933.3 63.7C906.7 64.3 853.3 65.7 800 64C746.7 62.3 693.3 57.7 640 57.3C586.7 57 533.3 61 480 61.3C426.7 61.7 373.3 58.3 320 57C266.7 55.7 213.3 56.3 160 60.3C106.7 64.3 53.3 71.7 26.7 75.3L0 79Z" fill="#ffbba5"></path><path d="M0 123L26.7 123C53.3 123 106.7 123 160 121.3C213.3 119.7 266.7 116.3 320 115.3C373.3 114.3 426.7 115.7 480 115.3C533.3 115 586.7 113 640 114.3C693.3 115.7 746.7 120.3 800 121C853.3 121.7 906.7 118.3 933.3 116.7L960 115L960 105L933.3 106.7C906.7 108.3 853.3 111.7 800 111C746.7 110.3 693.3 105.7 640 103.3C586.7 101 533.3 101 480 100.7C426.7 100.3 373.3 99.7 320 100.7C266.7 101.7 213.3 104.3 160 107C106.7 109.7 53.3 112.3 26.7 113.7L0 115Z" fill="#ffbea7"></path><path d="M0 133L26.7 132.7C53.3 132.3 106.7 131.7 160 131.3C213.3 131 266.7 131 320 131.7C373.3 132.3 426.7 133.7 480 133.7C533.3 133.7 586.7 132.3 640 132.7C693.3 133 746.7 135 800 134.3C853.3 133.7 906.7 130.3 933.3 128.7L960 127L960 113L933.3 114.7C906.7 116.3 853.3 119.7 800 119C746.7 118.3 693.3 113.7 640 112.3C586.7 111 533.3 113 480 113.3C426.7 113.7 373.3 112.3 320 113.3C266.7 114.3 213.3 117.7 160 119.3C106.7 121 53.3 121 26.7 121L0 121Z" fill="#ffc1a9"></path><path d="M0 151L26.7 151C53.3 151 106.7 151 160 151.7C213.3 152.3 266.7 153.7 320 156C373.3 158.3 426.7 161.7 480 164C533.3 166.3 586.7 167.7 640 168C693.3 168.3 746.7 167.7 800 167.3C853.3 167 906.7 167 933.3 167L960 167L960 125L933.3 126.7C906.7 128.3 853.3 131.7 800 132.3C746.7 133 693.3 131 640 130.7C586.7 130.3 533.3 131.7 480 131.7C426.7 131.7 373.3 130.3 320 129.7C266.7 129 213.3 129 160 129.3C106.7 129.7 53.3 130.3 26.7 130.7L0 131Z" fill="#ffc4ab"></path><path d="M0 161L26.7 162C53.3 163 106.7 165 160 166.7C213.3 168.3 266.7 169.7 320 172C373.3 174.3 426.7 177.7 480 179.7C533.3 181.7 586.7 182.3 640 182C693.3 181.7 746.7 180.3 800 179C853.3 177.7 906.7 176.3 933.3 175.7L960 175L960 165L933.3 165C906.7 165 853.3 165 800 165.3C746.7 165.7 693.3 166.3 640 166C586.7 165.7 533.3 164.3 480 162C426.7 159.7 373.3 156.3 320 154C266.7 151.7 213.3 150.3 160 149.7C106.7 149 53.3 149 26.7 149L0 149Z" fill="#ffc7ad"></path><path d="M0 175L26.7 176C53.3 177 106.7 179 160 180C213.3 181 266.7 181 320 182C373.3 183 426.7 185 480 186.7C533.3 188.3 586.7 189.7 640 189.7C693.3 189.7 746.7 188.3 800 187.7C853.3 187 906.7 187 933.3 187L960 187L960 173L933.3 173.7C906.7 174.3 853.3 175.7 800 177C746.7 178.3 693.3 179.7 640 180C586.7 180.3 533.3 179.7 480 177.7C426.7 175.7 373.3 172.3 320 170C266.7 167.7 213.3 166.3 160 164.7C106.7 163 53.3 161 26.7 160L0 159Z" fill="#ffcab0"></path><path d="M0 201L26.7 201C53.3 201 106.7 201 160 201C213.3 201 266.7 201 320 201C373.3 201 426.7 201 480 201C533.3 201 586.7 201 640 201C693.3 201 746.7 201 800 201C853.3 201 906.7 201 933.3 201L960 201L960 185L933.3 185C906.7 185 853.3 185 800 185.7C746.7 186.3 693.3 187.7 640 187.7C586.7 187.7 533.3 186.3 480 184.7C426.7 183 373.3 181 320 180C266.7 179 213.3 179 160 178C106.7 177 53.3 175 26.7 174L0 173Z" fill="#ffcdb2"></path></svg>