<svg id="visual" viewBox="0 0 960 150" width="960" height="150" xmlns="http://www.w3.org/2000/svg" xmlns:xlink="http://www.w3.org/1999/xlink" version="1.1"><path d="M0 45L26.7 43.5C53.3 42 106.7 39 160 34.2C213.3 29.3 266.7 22.7 320 22.3C373.3 22 426.7 28 480 32.5C533.3 37 586.7 40 640 41C693.3 42 746.7 41 800 36.5C853.3 32 906.7 24 933.3 20L960 16L960 0L933.3 0C906.7 0 853.3 0 800 0C746.7 0 693.3 0 640 0C586.7 0 533.3 0 480 0C426.7 0 373.3 0 320 0C266.7 0 213.3 0 160 0C106.7 0 53.3 0 26.7 0L0 0Z" fill="#b5838d"></path><path d="M0 79L26.7 74.5C53.3 70 106.7 61 160 55.3C213.3 49.7 266.7 47.3 320 45.3C373.3 43.3 426.7 41.7 480 43.7C533.3 45.7 586.7 51.3 640 57.2C693.3 63 746.7 69 800 63C853.3 57 906.7 39 933.3 30L960 21L960 14L933.3 18C906.7 22 853.3 30 800 34.5C746.7 39 693.3 40 640 39C586.7 38 533.3 35 480 30.5C426.7 26 373.3 20 320 20.3C266.7 20.7 213.3 27.3 160 32.2C106.7 37 53.3 40 26.7 41.5L0 43Z" fill="#c58a93"></path><path d="M0 102L26.7 98.7C53.3 95.3 106.7 88.7 160 86C213.3 83.3 266.7 84.7 320 89.7C373.3 94.7 426.7 103.3 480 110.5C533.3 117.7 586.7 123.3 640 124.7C693.3 126 746.7 123 800 124.2C853.3 125.3 906.7 130.7 933.3 133.3L960 136L960 19L933.3 28C906.7 37 853.3 55 800 61C746.7 67 693.3 61 640 55.2C586.7 49.3 533.3 43.7 480 41.7C426.7 39.7 373.3 41.3 320 43.3C266.7 45.3 213.3 47.7 160 53.3C106.7 59 53.3 68 26.7 72.5L0 77Z" fill="#d59197"></path><path d="M0 151L26.7 151C53.3 151 106.7 151 160 151C213.3 151 266.7 151 320 151C373.3 151 426.7 151 480 151C533.3 151 586.7 151 640 151C693.3 151 746.7 151 800 151C853.3 151 906.7 151 933.3 151L960 151L960 134L933.3 131.3C906.7 128.7 853.3 123.3 800 122.2C746.7 121 693.3 124 640 122.7C586.7 121.3 533.3 115.7 480 108.5C426.7 101.3 373.3 92.7 320 87.7C266.7 82.7 213.3 81.3 160 84C106.7 86.7 53.3 93.3 26.7 96.7L0 100Z" fill="#e5989b"></path></svg>