<svg id="visual" viewBox="0 0 960 150" width="960" height="150" xmlns="http://www.w3.org/2000/svg" xmlns:xlink="http://www.w3.org/1999/xlink" version="1.1"><path d="M0 67L26.7 69C53.3 71 106.7 75 160 70.5C213.3 66 266.7 53 320 43.5C373.3 34 426.7 28 480 29.8C533.3 31.7 586.7 41.3 640 50.3C693.3 59.3 746.7 67.7 800 66.8C853.3 66 906.7 56 933.3 51L960 46L960 0L933.3 0C906.7 0 853.3 0 800 0C746.7 0 693.3 0 640 0C586.7 0 533.3 0 480 0C426.7 0 373.3 0 320 0C266.7 0 213.3 0 160 0C106.7 0 53.3 0 26.7 0L0 0Z" fill="#e5989b"></path><path d="M0 126L26.7 124.2C53.3 122.3 106.7 118.7 160 111.3C213.3 104 266.7 93 320 84C373.3 75 426.7 68 480 72.3C533.3 76.7 586.7 92.3 640 102.3C693.3 112.3 746.7 116.7 800 111.3C853.3 106 906.7 91 933.3 83.5L960 76L960 44L933.3 49C906.7 54 853.3 64 800 64.8C746.7 65.7 693.3 57.3 640 48.3C586.7 39.3 533.3 29.7 480 27.8C426.7 26 373.3 32 320 41.5C266.7 51 213.3 64 160 68.5C106.7 73 53.3 69 26.7 67L0 65Z" fill="#efa19d"></path><path d="M0 139L26.7 138C53.3 137 106.7 135 160 131.3C213.3 127.7 266.7 122.3 320 120.7C373.3 119 426.7 121 480 123.2C533.3 125.3 586.7 127.7 640 131.2C693.3 134.7 746.7 139.3 800 135.7C853.3 132 906.7 120 933.3 114L960 108L960 74L933.3 81.5C906.7 89 853.3 104 800 109.3C746.7 114.7 693.3 110.3 640 100.3C586.7 90.3 533.3 74.7 480 70.3C426.7 66 373.3 73 320 82C266.7 91 213.3 102 160 109.3C106.7 116.7 53.3 120.3 26.7 122.2L0 124Z" fill="#f7ab9f"></path><path d="M0 151L26.7 151C53.3 151 106.7 151 160 151C213.3 151 266.7 151 320 151C373.3 151 426.7 151 480 151C533.3 151 586.7 151 640 151C693.3 151 746.7 151 800 151C853.3 151 906.7 151 933.3 151L960 151L960 106L933.3 112C906.7 118 853.3 130 800 133.7C746.7 137.3 693.3 132.7 640 129.2C586.7 125.7 533.3 123.3 480 121.2C426.7 119 373.3 117 320 118.7C266.7 120.3 213.3 125.7 160 129.3C106.7 133 53.3 135 26.7 136L0 137Z" fill="#ffb4a2"></path></svg>