<svg id="visual" viewBox="0 0 960 150" width="960" height="150" xmlns="http://www.w3.org/2000/svg" xmlns:xlink="http://www.w3.org/1999/xlink" version="1.1"><path d="M0 81L7.7 78.7C15.3 76.3 30.7 71.7 45.8 65.7C61 59.7 76 52.3 91.2 50.7C106.3 49 121.7 53 137 53.2C152.3 53.3 167.7 49.7 183 51.2C198.3 52.7 213.7 59.3 228.8 63.2C244 67 259 68 274.2 59.5C289.3 51 304.7 33 320 23C335.3 13 350.7 11 365.8 10.2C381 9.3 396 9.7 411.2 11.8C426.3 14 441.7 18 457 22.3C472.3 26.7 487.7 31.3 503 29.3C518.3 27.3 533.7 18.7 548.8 16.8C564 15 579 20 594.2 25.3C609.3 30.7 624.7 36.3 640 35.3C655.3 34.3 670.7 26.7 685.8 36.3C701 46 716 73 731.2 78.3C746.3 83.7 761.7 67.3 777 59.7C792.3 52 807.7 53 823 56C838.3 59 853.7 64 868.8 62.2C884 60.3 899 51.7 914.2 45.7C929.3 39.7 944.7 36.3 952.3 34.7L960 33L960 0L952.3 0C944.7 0 929.3 0 914.2 0C899 0 884 0 868.8 0C853.7 0 838.3 0 823 0C807.7 0 792.3 0 777 0C761.7 0 746.3 0 731.2 0C716 0 701 0 685.8 0C670.7 0 655.3 0 640 0C624.7 0 609.3 0 594.2 0C579 0 564 0 548.8 0C533.7 0 518.3 0 503 0C487.7 0 472.3 0 457 0C441.7 0 426.3 0 411.2 0C396 0 381 0 365.8 0C350.7 0 335.3 0 320 0C304.7 0 289.3 0 274.2 0C259 0 244 0 228.8 0C213.7 0 198.3 0 183 0C167.7 0 152.3 0 137 0C121.7 0 106.3 0 91.2 0C76 0 61 0 45.8 0C30.7 0 15.3 0 7.7 0L0 0Z" fill="#b5838d"></path><path d="M0 85L7.7 84.5C15.3 84 30.7 83 45.8 83C61 83 76 84 91.2 86.8C106.3 89.7 121.7 94.3 137 91.2C152.3 88 167.7 77 183 77C198.3 77 213.7 88 228.8 93.2C244 98.3 259 97.7 274.2 95.3C289.3 93 304.7 89 320 81.3C335.3 73.7 350.7 62.3 365.8 62.2C381 62 396 73 411.2 77.5C426.3 82 441.7 80 457 82.5C472.3 85 487.7 92 503 92C518.3 92 533.7 85 548.8 77.7C564 70.3 579 62.7 594.2 63.8C609.3 65 624.7 75 640 82C655.3 89 670.7 93 685.8 96.8C701 100.7 716 104.3 731.2 102.8C746.3 101.3 761.7 94.7 777 88.3C792.3 82 807.7 76 823 73.3C838.3 70.7 853.7 71.3 868.8 70.8C884 70.3 899 68.7 914.2 67.3C929.3 66 944.7 65 952.3 64.5L960 64L960 31L952.3 32.7C944.7 34.3 929.3 37.7 914.2 43.7C899 49.7 884 58.3 868.8 60.2C853.7 62 838.3 57 823 54C807.7 51 792.3 50 777 57.7C761.7 65.3 746.3 81.7 731.2 76.3C716 71 701 44 685.8 34.3C670.7 24.7 655.3 32.3 640 33.3C624.7 34.3 609.3 28.7 594.2 23.3C579 18 564 13 548.8 14.8C533.7 16.7 518.3 25.3 503 27.3C487.7 29.3 472.3 24.7 457 20.3C441.7 16 426.3 12 411.2 9.8C396 7.7 381 7.3 365.8 8.2C350.7 9 335.3 11 320 21C304.7 31 289.3 49 274.2 57.5C259 66 244 65 228.8 61.2C213.7 57.3 198.3 50.7 183 49.2C167.7 47.7 152.3 51.3 137 51.2C121.7 51 106.3 47 91.2 48.7C76 50.3 61 57.7 45.8 63.7C30.7 69.7 15.3 74.3 7.7 76.7L0 79Z" fill="#a27c8c"></path><path d="M0 117L7.7 116.7C15.3 116.3 30.7 115.7 45.8 113.8C61 112 76 109 91.2 106.8C106.3 104.7 121.7 103.3 137 106.7C152.3 110 167.7 118 183 119C198.3 120 213.7 114 228.8 112.5C244 111 259 114 274.2 120.2C289.3 126.3 304.7 135.7 320 132.2C335.3 128.7 350.7 112.3 365.8 109.2C381 106 396 116 411.2 117.7C426.3 119.3 441.7 112.7 457 110.7C472.3 108.7 487.7 111.3 503 107.2C518.3 103 533.7 92 548.8 90.2C564 88.3 579 95.7 594.2 104.3C609.3 113 624.7 123 640 130.5C655.3 138 670.7 143 685.8 139C701 135 716 122 731.2 113C746.3 104 761.7 99 777 103C792.3 107 807.7 120 823 122C838.3 124 853.7 115 868.8 108.8C884 102.7 899 99.3 914.2 101.8C929.3 104.3 944.7 112.7 952.3 116.8L960 121L960 62L952.3 62.5C944.7 63 929.3 64 914.2 65.3C899 66.7 884 68.3 868.8 68.8C853.7 69.3 838.3 68.7 823 71.3C807.7 74 792.3 80 777 86.3C761.7 92.7 746.3 99.3 731.2 100.8C716 102.3 701 98.7 685.8 94.8C670.7 91 655.3 87 640 80C624.7 73 609.3 63 594.2 61.8C579 60.7 564 68.3 548.8 75.7C533.7 83 518.3 90 503 90C487.7 90 472.3 83 457 80.5C441.7 78 426.3 80 411.2 75.5C396 71 381 60 365.8 60.2C350.7 60.3 335.3 71.7 320 79.3C304.7 87 289.3 91 274.2 93.3C259 95.7 244 96.3 228.8 91.2C213.7 86 198.3 75 183 75C167.7 75 152.3 86 137 89.2C121.7 92.3 106.3 87.7 91.2 84.8C76 82 61 81 45.8 81C30.7 81 15.3 82 7.7 82.5L0 83Z" fill="#8f7687"></path><path d="M0 151L7.7 146C15.3 141 30.7 131 45.8 129.3C61 127.7 76 134.3 91.2 131.5C106.3 128.7 121.7 116.3 137 116.8C152.3 117.3 167.7 130.7 183 135C198.3 139.3 213.7 134.7 228.8 130.2C244 125.7 259 121.3 274.2 124.8C289.3 128.3 304.7 139.7 320 140.8C335.3 142 350.7 133 365.8 131.8C381 130.7 396 137.3 411.2 136.7C426.3 136 441.7 128 457 124.2C472.3 120.3 487.7 120.7 503 119.7C518.3 118.7 533.7 116.3 548.8 118.8C564 121.3 579 128.7 594.2 132.2C609.3 135.7 624.7 135.3 640 137.7C655.3 140 670.7 145 685.8 144C701 143 716 136 731.2 130.5C746.3 125 761.7 121 777 124.2C792.3 127.3 807.7 137.7 823 139.7C838.3 141.7 853.7 135.3 868.8 132.7C884 130 899 131 914.2 131C929.3 131 944.7 130 952.3 129.5L960 129L960 119L952.3 114.8C944.7 110.7 929.3 102.3 914.2 99.8C899 97.3 884 100.7 868.8 106.8C853.7 113 838.3 122 823 120C807.7 118 792.3 105 777 101C761.7 97 746.3 102 731.2 111C716 120 701 133 685.8 137C670.7 141 655.3 136 640 128.5C624.7 121 609.3 111 594.2 102.3C579 93.7 564 86.3 548.8 88.2C533.7 90 518.3 101 503 105.2C487.7 109.3 472.3 106.7 457 108.7C441.7 110.7 426.3 117.3 411.2 115.7C396 114 381 104 365.8 107.2C350.7 110.3 335.3 126.7 320 130.2C304.7 133.7 289.3 124.3 274.2 118.2C259 112 244 109 228.8 110.5C213.7 112 198.3 118 183 117C167.7 116 152.3 108 137 104.7C121.7 101.3 106.3 102.7 91.2 104.8C76 107 61 110 45.8 111.8C30.7 113.7 15.3 114.3 7.7 114.7L0 115Z" fill="#7d6f7f"></path><path d="M0 151L7.7 151C15.3 151 30.7 151 45.8 151C61 151 76 151 91.2 151C106.3 151 121.7 151 137 151C152.3 151 167.7 151 183 151C198.3 151 213.7 151 228.8 151C244 151 259 151 274.2 151C289.3 151 304.7 151 320 151C335.3 151 350.7 151 365.8 151C381 151 396 151 411.2 151C426.3 151 441.7 151 457 151C472.3 151 487.7 151 503 151C518.3 151 533.7 151 548.8 151C564 151 579 151 594.2 151C609.3 151 624.7 151 640 151C655.3 151 670.7 151 685.8 151C701 151 716 151 731.2 151C746.3 151 761.7 151 777 151C792.3 151 807.7 151 823 151C838.3 151 853.7 151 868.8 151C884 151 899 151 914.2 151C929.3 151 944.7 151 952.3 151L960 151L960 127L952.3 127.5C944.7 128 929.3 129 914.2 129C899 129 884 128 868.8 130.7C853.7 133.3 838.3 139.7 823 137.7C807.7 135.7 792.3 125.3 777 122.2C761.7 119 746.3 123 731.2 128.5C716 134 701 141 685.8 142C670.7 143 655.3 138 640 135.7C624.7 133.3 609.3 133.7 594.2 130.2C579 126.7 564 119.3 548.8 116.8C533.7 114.3 518.3 116.7 503 117.7C487.7 118.7 472.3 118.3 457 122.2C441.7 126 426.3 134 411.2 134.7C396 135.3 381 128.7 365.8 129.8C350.7 131 335.3 140 320 138.8C304.7 137.7 289.3 126.3 274.2 122.8C259 119.3 244 123.7 228.8 128.2C213.7 132.7 198.3 137.3 183 133C167.7 128.7 152.3 115.3 137 114.8C121.7 114.3 106.3 126.7 91.2 129.5C76 132.3 61 125.7 45.8 127.3C30.7 129 15.3 139 7.7 144L0 149Z" fill="#6d6875"></path></svg>