<svg id="visual" viewBox="0 0 960 150" width="960" height="150" xmlns="http://www.w3.org/2000/svg" xmlns:xlink="http://www.w3.org/1999/xlink" version="1.1"><path d="M0 13L7.7 11.8C15.3 10.7 30.7 8.3 45.8 8.3C61 8.3 76 10.7 91.2 14.7C106.3 18.7 121.7 24.3 137 26.2C152.3 28 167.7 26 183 21.7C198.3 17.3 213.7 10.7 228.8 7.2C244 3.7 259 3.3 274.2 3.3C289.3 3.3 304.7 3.7 320 6.3C335.3 9 350.7 14 365.8 14C381 14 396 9 411.2 8.5C426.3 8 441.7 12 457 13.8C472.3 15.7 487.7 15.3 503 16.3C518.3 17.3 533.7 19.7 548.8 21.8C564 24 579 26 594.2 23C609.3 20 624.7 12 640 12.3C655.3 12.7 670.7 21.3 685.8 20.7C701 20 716 10 731.2 8C746.3 6 761.7 12 777 14.5C792.3 17 807.7 16 823 15.7C838.3 15.3 853.7 15.7 868.8 15.7C884 15.7 899 15.3 914.2 13.3C929.3 11.3 944.7 7.7 952.3 5.8L960 4L960 0L952.3 0C944.7 0 929.3 0 914.2 0C899 0 884 0 868.8 0C853.7 0 838.3 0 823 0C807.7 0 792.3 0 777 0C761.7 0 746.3 0 731.2 0C716 0 701 0 685.8 0C670.7 0 655.3 0 640 0C624.7 0 609.3 0 594.2 0C579 0 564 0 548.8 0C533.7 0 518.3 0 503 0C487.7 0 472.3 0 457 0C441.7 0 426.3 0 411.2 0C396 0 381 0 365.8 0C350.7 0 335.3 0 320 0C304.7 0 289.3 0 274.2 0C259 0 244 0 228.8 0C213.7 0 198.3 0 183 0C167.7 0 152.3 0 137 0C121.7 0 106.3 0 91.2 0C76 0 61 0 45.8 0C30.7 0 15.3 0 7.7 0L0 0Z" fill="#ffb4a2"></path><path d="M0 13L7.7 13.5C15.3 14 30.7 15 45.8 19.3C61 23.7 76 31.3 91.2 34.8C106.3 38.3 121.7 37.7 137 37.3C152.3 37 167.7 37 183 35.3C198.3 33.7 213.7 30.3 228.8 24.7C244 19 259 11 274.2 11C289.3 11 304.7 19 320 24.2C335.3 29.3 350.7 31.7 365.8 33.8C381 36 396 38 411.2 38.5C426.3 39 441.7 38 457 38.8C472.3 39.7 487.7 42.3 503 41.8C518.3 41.3 533.7 37.7 548.8 35.3C564 33 579 32 594.2 31C609.3 30 624.7 29 640 30.8C655.3 32.7 670.7 37.3 685.8 33.7C701 30 716 18 731.2 19C746.3 20 761.7 34 777 37.7C792.3 41.3 807.7 34.7 823 36.2C838.3 37.7 853.7 47.3 868.8 46.7C884 46 899 35 914.2 27C929.3 19 944.7 14 952.3 11.5L960 9L960 2L952.3 3.8C944.7 5.7 929.3 9.3 914.2 11.3C899 13.3 884 13.7 868.8 13.7C853.7 13.7 838.3 13.3 823 13.7C807.7 14 792.3 15 777 12.8C761.7 10.7 746.3 5.3 731.2 7.3C716 9.3 701 18.7 685.8 19C670.7 19.3 655.3 10.7 640 10.3C624.7 10 609.3 18 594.2 21C579 24 564 22 548.8 19.8C533.7 17.7 518.3 15.3 503 14.3C487.7 13.3 472.3 13.7 457 11.8C441.7 10 426.3 6 411.2 6.5C396 7 381 12 365.8 12C350.7 12 335.3 7 320 4.3C304.7 1.7 289.3 1.3 274.2 1.3C259 1.3 244 1.7 228.8 5.2C213.7 8.7 198.3 15.3 183 19.7C167.7 24 152.3 26 137 24.2C121.7 22.3 106.3 16.7 91.2 12.7C76 8.7 61 6.3 45.8 6.3C30.7 6.3 15.3 8.7 7.7 9.8L0 11Z" fill="#e6a1a3"></path><path d="M0 28L7.7 27C15.3 26 30.7 24 45.8 36.7C61 49.3 76 76.7 91.2 82.7C106.3 88.7 121.7 73.3 137 67.5C152.3 61.7 167.7 65.3 183 71.3C198.3 77.3 213.7 85.7 228.8 81.2C244 76.7 259 59.3 274.2 60.8C289.3 62.3 304.7 82.7 320 86C335.3 89.3 350.7 75.7 365.8 70C381 64.3 396 66.7 411.2 69C426.3 71.3 441.7 73.7 457 78.3C472.3 83 487.7 90 503 88.8C518.3 87.7 533.7 78.3 548.8 68.2C564 58 579 47 594.2 47.7C609.3 48.3 624.7 60.7 640 71.3C655.3 82 670.7 91 685.8 83.5C701 76 716 52 731.2 44.3C746.3 36.7 761.7 45.3 777 47.3C792.3 49.3 807.7 44.7 823 47.7C838.3 50.7 853.7 61.3 868.8 71.2C884 81 899 90 914.2 82.5C929.3 75 944.7 51 952.3 39L960 27L960 7L952.3 9.5C944.7 12 929.3 17 914.2 25C899 33 884 44 868.8 44.7C853.7 45.3 838.3 35.7 823 34.2C807.7 32.7 792.3 39.3 777 35.7C761.7 32 746.3 18 731.2 17C716 16 701 28 685.8 31.7C670.7 35.3 655.3 30.7 640 28.8C624.7 27 609.3 28 594.2 29C579 30 564 31 548.8 33.3C533.7 35.7 518.3 39.3 503 39.8C487.7 40.3 472.3 37.7 457 36.8C441.7 36 426.3 37 411.2 36.5C396 36 381 34 365.8 31.8C350.7 29.7 335.3 27.3 320 22.2C304.7 17 289.3 9 274.2 9C259 9 244 17 228.8 22.7C213.7 28.3 198.3 31.7 183 33.3C167.7 35 152.3 35 137 35.3C121.7 35.7 106.3 36.3 91.2 32.8C76 29.3 61 21.7 45.8 17.3C30.7 13 15.3 12 7.7 11.5L0 11Z" fill="#c791a0"></path><path d="M0 37L7.7 38.8C15.3 40.7 30.7 44.3 45.8 59.3C61 74.3 76 100.7 91.2 104.8C106.3 109 121.7 91 137 84.2C152.3 77.3 167.7 81.7 183 89C198.3 96.3 213.7 106.7 228.8 100C244 93.3 259 69.7 274.2 70.2C289.3 70.7 304.7 95.3 320 102.7C335.3 110 350.7 100 365.8 95.5C381 91 396 92 411.2 91.2C426.3 90.3 441.7 87.7 457 92.2C472.3 96.7 487.7 108.3 503 110.2C518.3 112 533.7 104 548.8 90.2C564 76.3 579 56.7 594.2 56.8C609.3 57 624.7 77 640 89.5C655.3 102 670.7 107 685.8 97.8C701 88.7 716 65.3 731.2 58.7C746.3 52 761.7 62 777 66C792.3 70 807.7 68 823 68.5C838.3 69 853.7 72 868.8 80.7C884 89.3 899 103.7 914.2 98.2C929.3 92.7 944.7 67.3 952.3 54.7L960 42L960 25L952.3 37C944.7 49 929.3 73 914.2 80.5C899 88 884 79 868.8 69.2C853.7 59.3 838.3 48.7 823 45.7C807.7 42.7 792.3 47.3 777 45.3C761.7 43.3 746.3 34.7 731.2 42.3C716 50 701 74 685.8 81.5C670.7 89 655.3 80 640 69.3C624.7 58.7 609.3 46.3 594.2 45.7C579 45 564 56 548.8 66.2C533.7 76.3 518.3 85.7 503 86.8C487.7 88 472.3 81 457 76.3C441.7 71.7 426.3 69.3 411.2 67C396 64.7 381 62.3 365.8 68C350.7 73.7 335.3 87.3 320 84C304.7 80.7 289.3 60.3 274.2 58.8C259 57.3 244 74.7 228.8 79.2C213.7 83.7 198.3 75.3 183 69.3C167.7 63.3 152.3 59.7 137 65.5C121.7 71.3 106.3 86.7 91.2 80.7C76 74.7 61 47.3 45.8 34.7C30.7 22 15.3 24 7.7 25L0 26Z" fill="#a78397"></path><path d="M0 57L7.7 61C15.3 65 30.7 73 45.8 86C61 99 76 117 91.2 122.7C106.3 128.3 121.7 121.7 137 119.7C152.3 117.7 167.7 120.3 183 125.8C198.3 131.3 213.7 139.7 228.8 131.3C244 123 259 98 274.2 95.8C289.3 93.7 304.7 114.3 320 122.3C335.3 130.3 350.7 125.7 365.8 122.3C381 119 396 117 411.2 111.5C426.3 106 441.7 97 457 98.3C472.3 99.7 487.7 111.3 503 119.3C518.3 127.3 533.7 131.7 548.8 121.3C564 111 579 86 594.2 82C609.3 78 624.7 95 640 109C655.3 123 670.7 134 685.8 132C701 130 716 115 731.2 104.3C746.3 93.7 761.7 87.3 777 84.2C792.3 81 807.7 81 823 80C838.3 79 853.7 77 868.8 88.5C884 100 899 125 914.2 127.2C929.3 129.3 944.7 108.7 952.3 98.3L960 88L960 40L952.3 52.7C944.7 65.3 929.3 90.7 914.2 96.2C899 101.7 884 87.3 868.8 78.7C853.7 70 838.3 67 823 66.5C807.7 66 792.3 68 777 64C761.7 60 746.3 50 731.2 56.7C716 63.3 701 86.7 685.8 95.8C670.7 105 655.3 100 640 87.5C624.7 75 609.3 55 594.2 54.8C579 54.7 564 74.3 548.8 88.2C533.7 102 518.3 110 503 108.2C487.7 106.3 472.3 94.7 457 90.2C441.7 85.7 426.3 88.3 411.2 89.2C396 90 381 89 365.8 93.5C350.7 98 335.3 108 320 100.7C304.7 93.3 289.3 68.7 274.2 68.2C259 67.7 244 91.3 228.8 98C213.7 104.7 198.3 94.3 183 87C167.7 79.7 152.3 75.3 137 82.2C121.7 89 106.3 107 91.2 102.8C76 98.7 61 72.3 45.8 57.3C30.7 42.3 15.3 38.7 7.7 36.8L0 35Z" fill="#887689"></path><path d="M0 151L7.7 151C15.3 151 30.7 151 45.8 151C61 151 76 151 91.2 151C106.3 151 121.7 151 137 151C152.3 151 167.7 151 183 151C198.3 151 213.7 151 228.8 151C244 151 259 151 274.2 151C289.3 151 304.7 151 320 151C335.3 151 350.7 151 365.8 151C381 151 396 151 411.2 151C426.3 151 441.7 151 457 151C472.3 151 487.7 151 503 151C518.3 151 533.7 151 548.8 151C564 151 579 151 594.2 151C609.3 151 624.7 151 640 151C655.3 151 670.7 151 685.8 151C701 151 716 151 731.2 151C746.3 151 761.7 151 777 151C792.3 151 807.7 151 823 151C838.3 151 853.7 151 868.8 151C884 151 899 151 914.2 151C929.3 151 944.7 151 952.3 151L960 151L960 86L952.3 96.3C944.7 106.7 929.3 127.3 914.2 125.2C899 123 884 98 868.8 86.5C853.7 75 838.3 77 823 78C807.7 79 792.3 79 777 82.2C761.7 85.3 746.3 91.7 731.2 102.3C716 113 701 128 685.8 130C670.7 132 655.3 121 640 107C624.7 93 609.3 76 594.2 80C579 84 564 109 548.8 119.3C533.7 129.7 518.3 125.3 503 117.3C487.7 109.3 472.3 97.7 457 96.3C441.7 95 426.3 104 411.2 109.5C396 115 381 117 365.8 120.3C350.7 123.7 335.3 128.3 320 120.3C304.7 112.3 289.3 91.7 274.2 93.8C259 96 244 121 228.8 129.3C213.7 137.7 198.3 129.3 183 123.8C167.7 118.3 152.3 115.7 137 117.7C121.7 119.7 106.3 126.3 91.2 120.7C76 115 61 97 45.8 84C30.7 71 15.3 63 7.7 59L0 55Z" fill="#6d6875"></path></svg>